<svg width="18" height="17" viewBox="0 0 18 17" fill="none" xmlns="http://www.w3.org/2000/svg">
<path d="M11.701 6.6664C11.9329 6.44405 11.9329 6.08349 11.701 5.86112C11.4691 5.63874 11.0932 5.63874 10.8613 5.86112L7.32283 9.25468L6.15934 8.13889C5.92747 7.9165 5.55153 7.9165 5.31966 8.13889C5.08778 8.36127 5.08778 8.72176 5.31966 8.94415L6.90299 10.4626C7.13489 10.685 7.51078 10.685 7.74265 10.4626L11.701 6.6664Z" fill="white"/>
<path fill-rule="evenodd" clip-rule="evenodd" d="M8.55586 1.10232e-07H8.46497C6.63752 -7.48225e-06 5.20536 -1.51038e-05 4.08794 0.144067C2.94418 0.291544 2.04167 0.599298 1.33328 1.27868C0.624886 1.95806 0.303992 2.82362 0.150219 3.92054C-1.57487e-05 4.9922 -7.80173e-06 6.36571 1.14939e-07 8.11834V8.2055C-7.80173e-06 9.95815 -1.57487e-05 11.3316 0.150219 12.4033C0.303992 13.5002 0.624886 14.3658 1.33328 15.0452C2.04167 15.7246 2.94418 16.0323 4.08794 16.1798C5.20536 16.3238 6.63752 16.3238 8.46497 16.3238H8.55586C10.3833 16.3238 11.8155 16.3238 12.9329 16.1798C14.0766 16.0323 14.9792 15.7246 15.6876 15.0452C16.396 14.3658 16.7168 13.5002 16.8707 12.4033C17.0208 11.3316 17.0208 9.95815 17.0208 8.2055V8.11834C17.0208 6.36571 17.0208 4.9922 16.8707 3.92054C16.7168 2.82362 16.396 1.95806 15.6876 1.27868C14.9792 0.599298 14.0766 0.291544 12.9329 0.144067C11.8155 -1.51038e-05 10.3833 -7.48225e-06 8.55586 1.10232e-07ZM2.17297 2.08399C2.62394 1.65147 3.23409 1.40328 4.24617 1.27278C5.27532 1.14008 6.62765 1.13887 8.51042 1.13887C10.3932 1.13887 11.7455 1.14008 12.7746 1.27278C13.7867 1.40328 14.3969 1.65147 14.8479 2.08399C15.2989 2.51649 15.5577 3.10166 15.6937 4.07229C15.8321 5.0593 15.8333 6.35625 15.8333 8.16192C15.8333 9.96757 15.8321 11.2645 15.6937 12.2515C15.5577 13.2222 15.2989 13.8073 14.8479 14.2399C14.3969 14.6724 13.7867 14.9206 12.7746 15.051C11.7455 15.1838 10.3932 15.185 8.51042 15.185C6.62765 15.185 5.27532 15.1838 4.24617 15.051C3.23409 14.9206 2.62394 14.6724 2.17297 14.2399C1.72199 13.8073 1.4632 13.2222 1.32713 12.2515C1.18876 11.2645 1.1875 9.96757 1.1875 8.16192C1.1875 6.35625 1.18876 5.0593 1.32713 4.07229C1.4632 3.10166 1.72199 2.51649 2.17297 2.08399Z" fill="white"/>
</svg>
