<svg width="45" height="32" viewBox="0 0 45 32" fill="none" xmlns="http://www.w3.org/2000/svg">
<path d="M25.2701 10.904H39.1028M25.2701 15.5862H39.1028M25.2701 20.1444H39.1028M6.28378 1H37.9865C40.9047 1 43.2703 2.63262 43.2703 4.64656V26.5259C43.2703 28.5399 40.9047 30.1724 37.9865 30.1724H6.28378C3.36563 30.1724 1 28.5399 1 26.5259V4.64656C1 2.63262 3.36563 1 6.28378 1Z" stroke="white" stroke-width="2" stroke-linecap="round" stroke-linejoin="round"/>
<path d="M13.5024 17.5211C17.7771 17.5211 19.9545 19.0141 20.6062 21.9998C20.8692 23.205 19.8127 24.2189 18.5691 24.2189H8.43579C7.19214 24.2189 6.13564 23.205 6.39868 21.9998C7.05038 19.0141 9.22776 17.5211 13.5024 17.5211ZM13.5024 13.056C15.379 13.056 16.3172 12.0992 16.3172 9.70709C16.3172 7.31503 15.379 6.35822 13.5024 6.35822C11.6259 6.35822 10.6876 7.31503 10.6876 9.70709C10.6876 12.0992 11.6259 13.056 13.5024 13.056Z" stroke="white" stroke-width="2" stroke-linecap="round" stroke-linejoin="round"/>
</svg>
