<svg width="24" height="23" viewBox="0 0 24 23" fill="none" xmlns="http://www.w3.org/2000/svg">
<path d="M2.66667 12H1.5V7.33333C1.5 6.04467 2.54467 5 3.83333 5H8.5M2.66667 12V19C2.66667 20.2887 3.71133 21.3333 5 21.3333H19C20.2887 21.3333 21.3333 20.2887 21.3333 19V12M2.66667 12H9.66667M8.5 5V3.83333C8.5 2.54467 9.54467 1.5 10.8333 1.5H13.1667C14.4554 1.5 15.5 2.54467 15.5 3.83333V5M8.5 5H15.5M21.3333 12H22.5V7.33333C22.5 6.04467 21.4554 5 20.1667 5H15.5M21.3333 12H14.3333M9.66667 12V9.66667H14.3333V12M9.66667 12V14.3333H14.3333V12" stroke="black" stroke-width="2" stroke-linecap="round" stroke-linejoin="round"/>
</svg>
