<svg width="390" height="96" viewBox="0 0 390 96" fill="none" xmlns="http://www.w3.org/2000/svg">
<path d="M-143.533 -66.2101C-174.2 -62.2435 -208.6 -52.1352 -239.267 -38.0603L-257 -29.9993L-254.867 -26.1607L-252.867 -22.1941L-239.8 -28.4638C-159.267 -67.6176 -75.1333 -70.1767 3.66669 -36.141C23 -27.6961 37.5334 -19.763 61.5334 -4.53651C116.467 30.6507 159.267 47.0287 215.667 54.7059C270.867 62.1273 331.267 53.9382 391 30.7786C400.6 26.94 402.067 25.1487 398.867 20.9262C397.267 19.0069 396.333 19.1349 388.467 22.4617C375.8 27.7078 353.667 34.7452 335.8 39.2236C281 52.7866 221.4 51.891 167.8 36.4086C136.867 27.4519 101 10.8179 73.1334 -7.47945C8.46667 -49.96 -47.6667 -68.5133 -110.2 -68.1294C-120.867 -68.0014 -135.8 -67.2337 -143.533 -66.2101Z" fill="#02677A" fill-opacity="0.5"/>
<path d="M57.4 -50.4718L55.1333 -46.7612L67.5333 -39.084C117.533 -7.60743 166.067 10.1781 220.467 16.8317C234.6 18.623 243.933 18.8789 263.8 18.3671C307.8 16.9596 343.267 9.66629 387.933 -7.09561L401.533 -12.2138L400.067 -15.9244C399.267 -17.9717 398.2 -19.6351 397.667 -19.6351C397.267 -19.6351 392.6 -17.9717 387.267 -15.7965C346.333 0.325689 299 9.79425 259 9.79425C193.667 9.79425 133.8 -7.99129 75.4 -44.7139C67.1333 -49.96 60.2 -54.1825 60.0666 -54.1825C59.8 -54.1825 58.7333 -52.5191 57.4 -50.4718Z" fill="#013943" fill-opacity="0.5"/>
<path d="M-112.867 -28.9757C-156.6 -27.3123 -201.4 -15.6685 -245.133 5.44381L-254.2 9.79424L-252.2 13.6328L-250.2 17.3435L-232.6 9.15446C-202.733 -4.53656 -177.933 -12.0858 -144.867 -17.8437C-127.267 -20.9146 -86.9999 -21.0426 -66.7333 -17.9717C-23.6666 -11.574 17.0001 4.42019 59.6667 31.5463C110.067 63.5347 146.867 79.6568 191.8 89.2534C229.267 97.1865 274.733 97.8262 315.8 91.0447C338.733 87.2061 369 78.6332 393.8 69.1647C402.467 65.7099 403.133 65.1981 402.467 62.2552C401.133 57.265 400.333 57.137 391.8 60.5918C343.267 80.4246 283.4 90.4049 235.133 86.6943C177.667 82.2159 125.933 63.7906 69.8001 27.7077C29.8001 1.98907 -2.99991 -12.5976 -41.3999 -21.4264C-65.3999 -27.0564 -90.8666 -29.7434 -112.867 -28.9757Z" fill="#02677A" fill-opacity="0.5"/>
<path d="M-118.333 7.36315C-148.867 9.02654 -179.667 15.8081 -210.6 27.5798C-228.333 34.3613 -250.2 44.5976 -250.2 46.261C-250.2 47.0287 -249.4 48.6921 -248.467 49.9716C-246.867 52.1469 -245.933 51.8909 -233.4 45.8771C-207.4 33.4657 -182.2 25.1487 -152.467 19.1349C-132.2 15.1683 -93.9333 13.6329 -73.3999 16.1919C-28.0666 21.566 14.8667 36.7924 55.0001 61.8713C65.4001 68.269 66.2001 68.6529 67.9334 66.4776C70.8667 62.767 70.2 61.8713 61.4001 56.6252C-1.53328 18.879 -55.9333 3.9084 -118.333 7.36315Z" fill="#0097B2" fill-opacity="0.5"/>
</svg>
