<svg width="390" height="96" viewBox="0 0 390 96" fill="none" xmlns="http://www.w3.org/2000/svg">
<path d="M65.1773 5.41129C46.751 8.31915 26.0815 15.7295 7.6552 26.0476L-3 31.9572L-1.71817 34.7712L-0.516457 37.679L7.33474 33.0828C55.7238 4.37948 106.276 2.50345 153.623 27.4547C165.24 33.6456 173.972 39.4613 188.393 50.6237C221.4 76.4191 247.117 88.4257 281.005 94.0538C314.173 99.4943 350.464 93.491 386.355 76.5129C392.124 73.6989 393.005 72.3856 391.082 69.2902C390.121 67.8832 389.56 67.977 384.833 70.4158C377.222 74.2617 363.923 79.4208 353.188 82.7038C320.261 92.6468 284.45 91.9902 252.244 80.6402C233.658 74.0741 212.107 61.8799 195.363 48.4662C156.508 17.3241 122.779 3.72287 85.2058 4.00427C78.7967 4.09808 69.8239 4.66088 65.1773 5.41129Z" fill="#02677A"/>
<path d="M66.1773 1.41129C47.751 4.31915 27.0815 11.7295 8.6552 22.0476L-2 27.9572L-0.718171 30.7712L0.483543 33.679L8.33474 29.0828C56.7238 0.379478 107.276 -1.49655 154.623 23.4547C166.24 29.6456 174.972 35.4613 189.393 46.6237C222.4 72.4191 248.117 84.4257 282.005 90.0538C315.173 95.4943 351.464 89.491 387.355 72.5129C393.124 69.6989 394.005 68.3856 392.082 65.2902C391.121 63.8832 390.56 63.977 385.833 66.4158C378.222 70.2617 364.923 75.4208 354.188 78.7038C321.261 88.6468 285.45 87.9902 253.244 76.6402C234.658 70.0741 213.107 57.8799 196.363 44.4662C157.508 13.3241 123.779 -0.27713 86.2058 0.00427246C79.7967 0.0980759 70.8239 0.660881 66.1773 1.41129Z" fill="#02677A"/>
</svg>
