<svg width="390" height="104" viewBox="0 0 390 104" fill="none" xmlns="http://www.w3.org/2000/svg">
<path d="M57.9753 1.22202C39.3333 3.73986 18.4219 10.1563 -0.220078 19.0905L-11 24.2074L-9.70317 26.6441L-8.48739 29.1619L-0.544286 25.1821C48.4112 0.328598 99.555 -1.29581 147.457 20.3088C159.209 25.6694 168.044 30.7051 182.633 40.3703C216.027 62.706 242.044 73.1022 276.329 77.9754C309.885 82.6862 346.602 77.4881 382.913 62.7872C388.749 60.3506 389.64 59.2135 387.695 56.5332C386.722 55.3149 386.155 55.3961 381.373 57.5078C373.673 60.8379 360.218 65.305 349.357 68.1477C316.045 76.7571 279.815 76.1886 247.232 66.3609C228.428 60.6754 206.625 50.1168 189.685 38.5022C150.375 11.537 116.252 -0.239944 78.2383 0.00371552C71.7541 0.084938 62.6763 0.572258 57.9753 1.22202Z" fill="white"/>
<path d="M180.121 11.2121L178.743 13.5675L186.281 18.4408C216.675 38.421 246.178 49.7107 279.247 53.9341C287.839 55.0712 293.512 55.2336 305.589 54.9088C332.336 54.0153 353.896 49.3858 381.049 38.7459L389.316 35.4971L388.424 33.1417C387.938 31.8421 387.29 30.7863 386.965 30.7863C386.722 30.7863 383.885 31.8421 380.643 33.2229C355.76 43.4567 326.987 49.467 302.671 49.467C262.956 49.467 226.563 38.1773 191.063 14.8671C186.037 11.537 181.823 8.85673 181.742 8.85673C181.58 8.85673 180.931 9.9126 180.121 11.2121Z" fill="white"/>
<path d="M76.6173 24.8571C50.0323 25.913 22.7988 33.3041 -3.78631 46.7055L-9.29785 49.467L-8.08207 51.9036L-6.86629 54.259L3.83258 49.0609C21.9882 40.3703 37.0639 35.5783 57.1648 31.9233C67.8637 29.974 92.3414 29.8928 104.661 31.8421C130.841 35.9031 155.562 46.0557 181.499 63.2745C212.136 83.5796 234.507 93.8134 261.821 99.9049C284.597 104.941 312.236 105.347 337.2 101.042C351.141 98.6054 369.539 93.1636 384.615 87.1533C389.884 84.9603 390.289 84.6355 389.884 82.7674C389.073 79.5998 388.587 79.5186 383.399 81.7115C353.896 94.3007 317.504 100.636 288.163 98.2805C253.23 95.4378 221.782 83.742 187.659 60.8378C163.343 44.5125 143.404 35.2534 120.061 29.6492C105.472 26.0755 89.9909 24.3698 76.6173 24.8571Z" fill="white"/>
<path d="M73.294 47.9238C54.7331 48.9797 36.0101 53.2844 17.206 60.7566C6.42608 65.0613 -6.86646 71.559 -6.86646 72.6148C-6.86646 73.1022 -6.38014 74.158 -5.81278 74.9702C-4.84015 76.351 -4.27279 76.1885 3.3461 72.3712C19.1513 64.4928 34.4701 59.2134 52.5447 55.3961C64.8646 52.8782 88.1265 51.9036 100.609 53.528C128.166 56.9393 154.265 66.6045 178.662 82.5237C184.984 86.5848 185.47 86.8284 186.524 85.4477C188.307 83.0923 187.902 82.5237 182.552 79.1937C144.296 55.2336 111.226 45.7308 73.294 47.9238Z" fill="white"/>
</svg>
