<svg width="66" height="17" viewBox="0 0 66 17" fill="none" xmlns="http://www.w3.org/2000/svg">
<path d="M11.3525 0.199752C8.28429 0.611321 4.84251 1.66016 1.77425 3.12057L0 3.95698L0.213444 4.35528L0.413547 4.76684L1.72089 4.1163C9.77839 0.0537109 18.1961 -0.211818 26.0802 3.31971C28.0145 4.19596 29.4686 5.0191 31.8698 6.59899C37.366 10.25 41.6482 11.9494 47.2911 12.746C52.814 13.516 58.8571 12.6663 64.8336 10.2633C65.7941 9.86499 65.9408 9.67912 65.6206 9.241C65.4605 9.04185 65.3672 9.05513 64.5801 9.40032C63.3128 9.94465 61.0983 10.6749 59.3107 11.1395C53.8279 12.5468 47.8648 12.4539 42.502 10.8474C39.4071 9.9181 35.8185 8.19216 33.0304 6.29363C26.5604 1.88586 20.9442 -0.0392237 14.6876 0.000605583C13.6204 0.0138817 12.1263 0.0935402 11.3525 0.199752Z" fill="#02677A" fill-opacity="0.5"/>
<path d="M31.4563 1.83275L31.2295 2.21777L32.4701 3.01435C37.4727 6.28036 42.3286 8.12578 47.7714 8.81615C49.1855 9.00203 50.1193 9.02858 52.107 8.97547C56.5092 8.82943 60.0577 8.07267 64.5267 6.33346L65.8874 5.8024L65.7407 5.41739C65.6606 5.20497 65.5539 5.03237 65.5006 5.03237C65.4605 5.03237 64.9936 5.20497 64.46 5.43066C60.3646 7.1035 55.6288 8.08595 51.6267 8.08595C45.09 8.08595 39.1002 6.24053 33.2572 2.43019C32.4301 1.88586 31.7364 1.44773 31.7231 1.44773C31.6964 1.44773 31.5897 1.62033 31.4563 1.83275Z" fill="#013943" fill-opacity="0.5"/>
<path d="M14.4208 4.06319C10.0452 4.23578 5.56289 5.44394 1.18729 7.63455L0.280151 8.08595L0.480255 8.48424L0.680358 8.86926L2.44127 8.01957C5.42948 6.59899 7.91077 5.81568 11.2191 5.21824C12.9801 4.8996 17.0088 4.88633 19.0365 5.20496C23.3454 5.86878 27.4142 7.52834 31.6831 10.3429C36.7257 13.6621 40.4076 15.3349 44.9032 16.3306C48.6519 17.1538 53.2009 17.2201 57.3097 16.5165C59.6042 16.1182 62.6324 15.2287 65.1137 14.2462C65.9808 13.8877 66.0475 13.8346 65.9808 13.5293C65.8474 13.0115 65.7674 12.9982 64.9136 13.3567C60.0578 15.4145 54.068 16.4501 49.2388 16.0651C43.4892 15.6004 38.3132 13.6886 32.6969 9.94465C28.6949 7.27608 25.4132 5.76257 21.5712 4.8465C19.1699 4.26233 16.6219 3.98353 14.4208 4.06319Z" fill="#02677A" fill-opacity="0.5"/>
<path d="M13.8738 7.8337C10.8189 8.00629 7.73728 8.70994 4.64235 9.93137C2.8681 10.635 0.680298 11.6971 0.680298 11.8697C0.680298 11.9494 0.760339 12.122 0.853721 12.2547C1.0138 12.4804 1.10719 12.4539 2.36117 11.8299C4.96251 10.5421 7.48382 9.67912 10.4587 9.05513C12.4864 8.64356 16.3151 8.48424 18.3695 8.74977C22.9051 9.30738 27.2007 10.8873 31.2161 13.4895C32.2566 14.1533 32.3367 14.1931 32.5101 13.9674C32.8036 13.5824 32.7369 13.4895 31.8564 12.9451C25.5598 9.02857 20.117 7.47523 13.8738 7.8337Z" fill="#0097B2" fill-opacity="0.5"/>
</svg>
