<svg width="15" height="15" viewBox="0 0 15 15" fill="none" xmlns="http://www.w3.org/2000/svg">
<path fill-rule="evenodd" clip-rule="evenodd" d="M7.50009 11.4148C9.75943 11.4148 11.591 9.6111 11.591 7.38612C11.591 5.16113 9.75943 3.35742 7.50009 3.35742C5.24074 3.35742 3.40918 5.16113 3.40918 7.38612C3.40918 9.6111 5.24074 11.4148 7.50009 11.4148ZM7.50009 10.0719C9.00629 10.0719 10.2274 8.86942 10.2274 7.38612C10.2274 5.90279 9.00629 4.70032 7.50009 4.70032C5.99386 4.70032 4.77282 5.90279 4.77282 7.38612C4.77282 8.86942 5.99386 10.0719 7.50009 10.0719Z" fill="white"/>
<path d="M11.591 2.68579C11.2144 2.68579 10.9092 2.98641 10.9092 3.35724C10.9092 3.72807 11.2144 4.02869 11.591 4.02869C11.9676 4.02869 12.2728 3.72807 12.2728 3.35724C12.2728 2.98641 11.9676 2.68579 11.591 2.68579Z" fill="white"/>
<path fill-rule="evenodd" clip-rule="evenodd" d="M0.445882 2.19971C0 3.06149 0 4.18964 0 6.44591V8.32597C0 10.5822 0 11.7104 0.445882 12.5722C0.838091 13.3302 1.46392 13.9465 2.23368 14.3328C3.10877 14.7719 4.25433 14.7719 6.54545 14.7719H8.45455C10.7457 14.7719 11.8912 14.7719 12.7663 14.3328C13.5361 13.9465 14.1619 13.3302 14.5541 12.5722C15 11.7104 15 10.5822 15 8.32597V6.44591C15 4.18964 15 3.06149 14.5541 2.19971C14.1619 1.44166 13.5361 0.825346 12.7663 0.439101C11.8912 0 10.7457 0 8.45455 0H6.54545C4.25433 0 3.10877 0 2.23368 0.439101C1.46392 0.825346 0.838091 1.44166 0.445882 2.19971ZM8.45455 1.3429H6.54545C5.37739 1.3429 4.58335 1.34395 3.9696 1.39332C3.37175 1.44143 3.06603 1.52862 2.85275 1.63563C2.33958 1.89313 1.92237 2.304 1.66089 2.80937C1.55222 3.0194 1.46369 3.32048 1.41484 3.90923C1.3647 4.51365 1.36364 5.29561 1.36364 6.44591V8.32597C1.36364 9.4763 1.3647 10.2582 1.41484 10.8626C1.46369 11.4514 1.55222 11.7525 1.66089 11.9625C1.92237 12.4679 2.33958 12.8787 2.85275 13.1362C3.06603 13.2433 3.37175 13.3305 3.9696 13.3786C4.58335 13.4279 5.37739 13.429 6.54545 13.429H8.45455C9.62264 13.429 10.4166 13.4279 11.0304 13.3786C11.6283 13.3305 11.934 13.2433 12.1473 13.1362C12.6604 12.8787 13.0776 12.4679 13.3391 11.9625C13.4478 11.7525 13.5363 11.4514 13.5852 10.8626C13.6353 10.2582 13.6364 9.4763 13.6364 8.32597V6.44591C13.6364 5.29561 13.6353 4.51365 13.5852 3.90923C13.5363 3.32048 13.4478 3.0194 13.3391 2.80937C13.0776 2.304 12.6604 1.89313 12.1473 1.63563C11.934 1.52862 11.6283 1.44143 11.0304 1.39332C10.4166 1.34395 9.62264 1.3429 8.45455 1.3429Z" fill="white"/>
</svg>
