<svg width="15" height="15" viewBox="0 0 15 15" fill="none" xmlns="http://www.w3.org/2000/svg">
<g clip-path="url(#clip0_618_2341)">
<path d="M3.75002 4.70014C4.31486 4.70014 4.77275 4.24921 4.77275 3.69297C4.77275 3.13672 4.31486 2.68579 3.75002 2.68579C3.18518 2.68579 2.72729 3.13672 2.72729 3.69297C2.72729 4.24921 3.18518 4.70014 3.75002 4.70014Z" fill="white"/>
<path d="M2.72729 6.04303C2.72729 5.6722 3.03256 5.37158 3.40911 5.37158H4.09093C4.46749 5.37158 4.77275 5.6722 4.77275 6.04303V11.4146C4.77275 11.7855 4.46749 12.0861 4.09093 12.0861H3.40911C3.03256 12.0861 2.72729 11.7855 2.72729 11.4146V6.04303Z" fill="white"/>
<path d="M6.81829 12.0861H7.50011C7.87668 12.0861 8.18193 11.7855 8.18193 11.4146V8.39311C8.18193 7.38593 10.2274 6.71448 10.2274 8.05738V11.4149C10.2274 11.7857 10.5326 12.0861 10.9092 12.0861H11.591C11.9676 12.0861 12.2728 11.7855 12.2728 11.4146V7.38593C12.2728 6.04303 11.2501 5.37158 9.88647 5.37158C8.52284 5.37158 8.18193 6.37876 8.18193 6.37876V6.04303C8.18193 5.6722 7.87668 5.37158 7.50011 5.37158H6.81829C6.44172 5.37158 6.13647 5.6722 6.13647 6.04303V11.4146C6.13647 11.7855 6.44172 12.0861 6.81829 12.0861Z" fill="white"/>
<path fill-rule="evenodd" clip-rule="evenodd" d="M12.9545 0C14.0843 0 15 0.901857 15 2.01435V12.7575C15 13.8701 14.0843 14.7719 12.9545 14.7719H2.04545C0.915784 14.7719 0 13.8701 0 12.7575V2.01435C0 0.901857 0.915784 0 2.04545 0H12.9545ZM12.9545 1.3429C13.3311 1.3429 13.6364 1.64352 13.6364 2.01435V12.7575C13.6364 13.1284 13.3311 13.429 12.9545 13.429H2.04545C1.6689 13.429 1.36364 13.1284 1.36364 12.7575V2.01435C1.36364 1.64352 1.6689 1.3429 2.04545 1.3429H12.9545Z" fill="white"/>
</g>
<defs>
<clipPath id="clip0_618_2341">
<rect width="15" height="15" fill="white"/>
</clipPath>
</defs>
</svg>
