<svg width="15" height="16" viewBox="0 0 15 16" fill="none" xmlns="http://www.w3.org/2000/svg">
<path d="M10.8733 9.21179C10.6908 9.11946 9.78177 8.68093 9.61269 8.62158C9.4436 8.55893 9.31972 8.52925 9.19751 8.7139C9.07363 8.8969 8.72207 9.30411 8.61158 9.42776C8.50444 9.54975 8.39562 9.56459 8.21315 9.47392C7.12834 8.93976 6.41685 8.52101 5.70202 7.31257C5.51285 6.99108 5.89119 7.01416 6.24442 6.32009C6.30469 6.19809 6.27456 6.09423 6.22768 6.00191C6.18081 5.90958 5.81251 5.01603 5.65849 4.65168C5.5095 4.29723 5.35548 4.34669 5.24332 4.34009C5.13618 4.3335 5.01397 4.3335 4.89009 4.3335C4.76621 4.3335 4.56699 4.37966 4.39791 4.55936C4.22882 4.74236 3.75171 5.18254 3.75171 6.0761C3.75171 6.96965 4.41297 7.83518 4.50337 7.95718C4.59712 8.07918 5.80414 9.91245 7.65735 10.7021C8.82921 11.2 9.28791 11.2429 9.87384 11.1572C10.2304 11.1044 10.9653 10.7186 11.1177 10.2916C11.27 9.86629 11.27 9.50194 11.2248 9.42611C11.1796 9.34532 11.0557 9.29916 10.8733 9.21179Z" fill="white"/>
<path d="M14.4173 4.90079C14.039 4.01547 13.4966 3.22084 12.8052 2.5383C12.1138 1.85742 11.3069 1.32162 10.4062 0.950676C9.48547 0.569843 8.5078 0.376953 7.5 0.376953H7.46652C6.45202 0.381899 5.46933 0.579734 4.54524 0.96881C3.65295 1.3447 2.85274 1.87885 2.16804 2.55974C1.48334 3.24062 0.945954 4.03196 0.574307 4.91398C0.189267 5.82732 -0.00492728 6.79836 9.49754e-05 7.79743C0.00511723 8.94157 0.283016 10.0775 0.803656 11.093V13.5989C0.803656 14.0177 1.14852 14.3573 1.57374 14.3573H4.12002C5.15126 14.87 6.3047 15.1437 7.46652 15.1487H7.50168C8.50445 15.1487 9.4771 14.9574 10.3928 14.5832C11.2885 14.2155 12.0937 13.688 12.7834 13.0137C13.4748 12.3394 14.0189 11.5514 14.3989 10.6726C14.794 9.76259 14.9949 8.79485 14.9999 7.79578C15.0049 6.79176 14.8074 5.81742 14.4173 4.90079ZM11.8878 12.1218C10.7142 13.2659 9.15735 13.8957 7.5 13.8957H7.47154C6.46207 13.8908 5.45929 13.6435 4.5737 13.1785L4.43307 13.1044H2.07596V10.7831L2.00063 10.6446C1.52854 9.77248 1.27742 8.78495 1.2724 7.79083C1.2657 6.14715 1.90353 4.60403 3.07372 3.44175C4.24223 2.27947 5.80415 1.6365 7.47322 1.62991H7.50168C8.33872 1.62991 9.15065 1.78983 9.91571 2.10636C10.6623 2.41466 11.332 2.85814 11.9079 3.42527C12.4821 3.99074 12.9341 4.65184 13.2471 5.38713C13.5719 6.1488 13.7343 6.95663 13.731 7.79083C13.7209 9.43287 13.0663 10.971 11.8878 12.1218Z" fill="white"/>
</svg>
