<svg width="41" height="40" viewBox="0 0 41 40" fill="none" xmlns="http://www.w3.org/2000/svg">
<path d="M31.4908 32.7246H33.9823C35.8233 32.7246 37.4271 31.1846 36.8423 29.439C35.951 26.7788 33.7583 25.17 29.9035 24.6128M24.8158 19.1655C25.3008 19.3188 25.8563 19.3913 26.4823 19.3913C29.2601 19.3913 30.649 17.9628 30.649 14.3913C30.649 10.8199 29.2601 9.3913 26.4823 9.3913C25.8563 9.3913 25.3008 9.46386 24.8158 9.61716M16.4823 24.3913C22.5048 24.3913 25.7148 26.0738 26.8423 29.439C27.4271 31.1846 25.8233 32.7246 23.9823 32.7246H8.98231C7.14136 32.7246 5.5375 31.1846 6.12233 29.439C7.24976 26.0738 10.4599 24.3913 16.4823 24.3913ZM16.4823 19.3913C19.2601 19.3913 20.649 17.9628 20.649 14.3913C20.649 10.8199 19.2601 9.3913 16.4823 9.3913C13.7045 9.3913 12.3156 10.8199 12.3156 14.3913C12.3156 17.9628 13.7045 19.3913 16.4823 19.3913Z" stroke="white" stroke-width="2" stroke-linecap="round" stroke-linejoin="round"/>
<path d="M6.52187 38.3913H35.2175C37.859 38.3913 40.0001 36.2988 40.0001 33.7174V5.67391C40.0001 3.09258 37.859 1 35.2175 1H6.52187C3.8805 1 1.73926 3.09258 1.73926 5.67391V33.7174C1.73926 36.2988 3.8805 38.3913 6.52187 38.3913Z" stroke="white" stroke-width="2" stroke-linecap="round" stroke-linejoin="round"/>
</svg>
