<svg width="25" height="20" viewBox="0 0 25 20" fill="none" xmlns="http://www.w3.org/2000/svg">
<path d="M19.5893 18.1666H21.3333C22.622 18.1666 23.7447 17.0886 23.3353 15.8667C22.7114 14.0046 21.1765 12.8784 18.4782 12.4884M14.9168 8.67523C15.2563 8.78256 15.6451 8.83331 16.0833 8.83331C18.0278 8.83331 19 7.83336 19 5.33331C19 2.83331 18.0278 1.83331 16.0833 1.83331C15.6451 1.83331 15.2563 1.88411 14.9168 1.99142M9.08335 12.3333C13.2991 12.3333 15.5461 13.5111 16.3353 15.8667C16.7447 17.0886 15.622 18.1666 14.3333 18.1666H3.83335C2.54468 18.1666 1.42198 17.0886 1.83136 15.8667C2.62056 13.5111 4.86766 12.3333 9.08335 12.3333ZM9.08335 8.83331C11.0278 8.83331 12 7.83336 12 5.33331C12 2.83331 11.0278 1.83331 9.08335 1.83331C7.1389 1.83331 6.16668 2.83331 6.16668 5.33331C6.16668 7.83336 7.1389 8.83331 9.08335 8.83331Z" stroke="black" stroke-width="2" stroke-linecap="round" stroke-linejoin="round"/>
</svg>
