<svg width="34" height="34" viewBox="0 0 34 34" fill="none" xmlns="http://www.w3.org/2000/svg">
<path d="M5.14648 33C5.88166 27.6666 9.44096 25 17.0002 25C24.5596 25 28.1188 27.6666 28.854 33M17 19C19.6666 19 21 17.5714 21 14C21 10.4286 19.6666 9 17 9C14.3334 9 13 10.4286 13 14C13 17.5714 14.3334 19 17 19ZM5 33H29C31.2092 33 33 31.2092 33 29V5C33 2.79086 31.2092 1 29 1H5C2.79086 1 1 2.79086 1 5V29C1 31.2092 2.79086 33 5 33Z" stroke="white" stroke-width="2" stroke-linecap="round" stroke-linejoin="round"/>
</svg>
